<svg width="89" height="63" viewBox="0 0 89 63" fill="none" xmlns="http://www.w3.org/2000/svg" class="imagebutton">
<path d="M84.55 0H4.45C1.99277 0 0 1.98717 0 4.4375V57.6875C0 60.1378 1.99277 62.125 4.45 62.125H84.55C87.0072 62.125 89 60.1378 89 57.6875V4.4375C89 1.98717 87.0072 0 84.55 0ZM24.475 41.0302V43.2656C24.475 43.8786 23.9772 44.375 23.3625 44.375H21.1375C20.5228 44.375 20.025 43.8786 20.025 43.2656V41.0067C18.455 40.9262 16.9281 40.3799 15.6626 39.4327C15.1203 39.0264 15.0925 38.2166 15.5833 37.7493L17.2173 36.1947C17.6025 35.8287 18.1755 35.812 18.626 36.0935C19.1642 36.4291 19.7747 36.6094 20.4088 36.6094H24.3179C25.2218 36.6094 25.9588 35.7884 25.9588 34.7803C25.9588 33.9552 25.4568 33.2286 24.7392 33.015L18.4814 31.1429C15.8962 30.3691 14.0898 27.8952 14.0898 25.126C14.0898 21.7257 16.739 18.9634 20.0236 18.876V16.6406C20.0236 16.0277 20.5215 15.5312 21.1361 15.5312H23.3611C23.9758 15.5312 24.4736 16.0277 24.4736 16.6406V18.8996C26.0436 18.98 27.5705 19.525 28.836 20.4735C29.3783 20.8798 29.4062 21.6897 28.9153 22.157L27.2813 23.7115C26.8961 24.0776 26.3231 24.0942 25.8726 23.8127C25.3344 23.4758 24.7239 23.2969 24.0898 23.2969H20.1807C19.2768 23.2969 18.5398 24.1178 18.5398 25.126C18.5398 25.9511 19.0418 26.6777 19.7594 26.8913L26.0172 28.7633C28.6024 29.5371 30.4088 32.011 30.4088 34.7803C30.4088 38.1819 27.7597 40.9429 24.475 41.0302ZM57.85 38.8281C57.85 39.4411 57.3522 39.9375 56.7375 39.9375H41.1625C40.5478 39.9375 40.05 39.4411 40.05 38.8281V36.6094C40.05 35.9964 40.5478 35.5 41.1625 35.5H56.7375C57.3522 35.5 57.85 35.9964 57.85 36.6094V38.8281ZM80.1 38.8281C80.1 39.4411 79.6021 39.9375 78.9875 39.9375H67.8625C67.2478 39.9375 66.75 39.4411 66.75 38.8281V36.6094C66.75 35.9964 67.2478 35.5 67.8625 35.5H78.9875C79.6021 35.5 80.1 35.9964 80.1 36.6094V38.8281ZM80.1 25.5156C80.1 26.1286 79.6021 26.625 78.9875 26.625H41.1625C40.5478 26.625 40.05 26.1286 40.05 25.5156V23.2969C40.05 22.6839 40.5478 22.1875 41.1625 22.1875H78.9875C79.6021 22.1875 80.1 22.6839 80.1 23.2969V25.5156Z" fill="#4B4E5C"/>
</svg>
