<svg width="94" height="94" viewBox="0 0 94 94" fill="none" xmlns="http://www.w3.org/2000/svg" class="imagebutton">
<path d="M91.0509 30.6135C95.0142 41.2678 94.9818 52.9973 90.9598 63.6295C86.9377 74.2616 79.1986 83.0758 69.176 88.4393C59.1534 93.8029 47.5266 95.3522 36.4493 92.8004C25.3719 90.2485 15.5948 83.7685 8.92892 74.5605C2.26308 65.3526 -0.83971 54.0408 0.195313 42.7206C1.23034 31.4003 6.33302 20.8388 14.5582 12.9923C22.7833 5.14589 33.5735 0.546327 44.9299 0.0456433C56.2864 -0.45504 67.4395 3.17709 76.3232 10.2692L85.0702 1.52265C86.0519 0.556827 87.3755 0.0180385 88.7526 0.0236461C90.1297 0.0292536 91.4489 0.578803 92.4226 1.55259C93.3964 2.52637 93.946 3.8455 93.9516 5.22263C93.9572 6.59976 93.4184 7.92332 92.4526 8.905L65.4568 35.9008L65.4559 35.9021L65.4546 35.903L50.6903 50.6677C49.7104 51.6423 48.384 52.1885 47.0019 52.1865C45.6199 52.1846 44.295 51.6347 43.3178 50.6575C42.3405 49.6802 41.7907 48.3553 41.7889 46.9732C41.7871 45.5912 42.3333 44.2648 43.308 43.2849L53.7533 32.8391C50.8101 31.4327 47.5012 30.9802 44.2885 31.5449C41.0757 32.1095 38.1194 33.6631 35.8322 35.9888C33.5449 38.3145 32.0408 41.2963 31.5298 44.518C31.0187 47.7397 31.5263 51.0406 32.9816 53.9599C34.4369 56.8793 36.7673 59.2715 39.6476 60.8026C42.5279 62.3337 45.8144 62.9274 49.0484 62.5008C52.2823 62.0742 55.3024 60.6485 57.6872 58.4229C60.0719 56.1972 61.7022 53.2825 62.3507 50.0856C62.4804 49.4083 62.7431 48.7634 63.1236 48.1882C63.504 47.6129 63.9946 47.1188 64.5671 46.7342C65.1397 46.3497 65.7827 46.0825 66.4591 45.9479C67.1355 45.8133 67.8318 45.8141 68.5079 45.9502C69.184 46.0863 69.8264 46.355 70.3981 46.7408C70.9697 47.1266 71.4593 47.6219 71.8384 48.198C72.2175 48.774 72.4788 49.4195 72.607 50.0972C72.7352 50.7748 72.7279 51.4711 72.5855 52.1459C71.4762 57.6225 68.6379 62.5983 64.4886 66.3408C60.3392 70.0833 55.098 72.3949 49.5364 72.9352C43.9747 73.4755 38.3866 72.2161 33.5944 69.3422C28.8023 66.4684 25.0594 62.132 22.9166 56.9714C20.7738 51.8107 20.3445 46.0985 21.6917 40.6755C23.0389 35.2526 26.0915 30.4053 30.4001 26.8474C34.7088 23.2895 40.0459 21.2088 45.6258 20.9116C51.2057 20.6144 56.7336 22.1165 61.3958 25.1966L68.8786 17.7138C61.8422 12.4631 53.1493 9.92373 44.3929 10.5609C35.6364 11.1981 27.4028 14.9692 21.2006 21.1833C14.9984 27.3973 11.243 35.6381 10.6225 44.3958C10.002 53.1534 12.558 61.8414 17.8221 68.8678C23.0862 75.8942 30.7059 80.7886 39.285 82.654C47.8642 84.5195 56.8282 83.2311 64.5347 79.025C72.2412 74.8188 78.174 67.9766 81.2461 59.7521C84.3182 51.5275 84.3239 42.4713 81.262 34.243C81.016 33.5985 80.9 32.9117 80.921 32.2222C80.9419 31.5328 81.0993 30.8543 81.384 30.226C81.6688 29.5977 82.0752 29.032 82.5798 28.5617C83.0845 28.0914 83.6773 27.7258 84.3241 27.486C84.9708 27.2462 85.6587 27.137 86.348 27.1646C87.0372 27.1922 87.7142 27.3562 88.3397 27.647C88.9652 27.9378 89.5269 28.3497 89.9922 28.8589C90.4576 29.3681 90.8174 29.9645 91.0509 30.6135Z" fill="#4B4E5C"/>
</svg>
